<svg width="512" height="512" viewBox="0 0 128 128" xmlns="http://www.w3.org/2000/svg" shape-rendering="crispEdges">
  <rect x="0" y="0" width="128" height="128" fill="#98db98" />

  <defs>
    <style type="text/css">
      .brown-dark { fill: #4a3118; }
      .brown-light { fill: #754d24; }
      .grey-dark { fill: #555555; }
      .grey-light { fill: #888888; }
      .red-frame { fill: #c41f1f; }
      .blue-frame { fill: #1f4bc4; }
      .strings { fill: #7aac7a; }
    </style>
  </defs>

  <rect x="40" y="112" width="48" height="8" class="brown-dark" />
  <rect x="44" y="108" width="40" height="4" class="brown-dark" />
  
  <rect x="60" y="32" width="8" height="76" class="brown-light" />
  <rect x="56" y="32" width="4" height="76" class="brown-dark" />
  <rect x="68" y="32" width="4" height="76" class="brown-dark" />
  
  <rect x="12" y="28" width="104" height="8" class="brown-light" />
  <rect x="12" y="24" width="104" height="4" class="brown-dark" />
  <rect x="12" y="36" width="104" height="4" class="brown-dark" />
  <rect x="56" y="20" width="16" height="8" class="brown-dark" />

  <rect x="16" y="40" width="2" height="48" class="grey-dark" /> <rect x="38" y="40" width="2" height="48" class="grey-dark" /> <rect x="12" y="88" width="32" height="8" class="grey-light" /> <rect x="10" y="88" width="2" height="12" class="grey-dark" />
  <rect x="44" y="88" width="2" height="12" class="grey-dark" />
  <rect x="12" y="96" width="32" height="4" class="grey-dark" />

  <rect x="88" y="40" width="2" height="48" class="grey-dark" /> <rect x="110" y="40" width="2" height="48" class="grey-dark" /> <rect x="84" y="88" width="32" height="8" class="grey-light" /> <rect x="82" y="88" width="2" height="12" class="grey-dark" />
  <rect x="116" y="88" width="2" height="12" class="grey-dark" />
  <rect x="84" y="96" width="32" height="4" class="grey-dark" />

  <g transform="translate(18, 50)">
    <rect x="6" y="24" width="4" height="12" class="red-frame" /> <rect x="4" y="36" width="8" height="2" class="red-frame" />
    <rect x="0" y="6" width="2" height="14" class="red-frame" /> <rect x="14" y="6" width="2" height="14" class="red-frame" />
    <rect x="4" y="0" width="8" height="2" class="red-frame" />
    <rect x="2" y="2" width="12" height="2" class="red-frame" />
    <rect x="2" y="20" width="12" height="2" class="red-frame" />
    <rect x="4" y="22" width="8" height="2" class="red-frame" />
    <rect x="4" y="4" width="8" height="16" class="strings" opacity="0.7" /> </g>

  <g transform="translate(90, 50)">
    <rect x="6" y="24" width="4" height="12" class="blue-frame" /> <rect x="4" y="36" width="8" height="2" class="blue-frame" />
    <rect x="0" y="6" width="2" height="14" class="blue-frame" /> <rect x="14" y="6" width="2" height="14" class="blue-frame" />
    <rect x="4" y="0" width="8" height="2" class="blue-frame" />
    <rect x="2" y="2" width="12" height="2" class="blue-frame" />
    <rect x="2" y="20" width="12" height="2" class="blue-frame" />
    <rect x="4" y="22" width="8" height="2" class="blue-frame" />
    <rect x="4" y="4" width="8" height="16" class="strings" opacity="0.7" /> </g>
</svg>